<svg width="210" height="210" viewBox="0 0 210 210" fill="none" xmlns="http://www.w3.org/2000/svg">
<g clip-path="url(#clip0_582_6140)">
<path d="M28.896 48.5941C28.896 48.5941 27.636 54.7681 29.232 57.0361C30.786 59.3041 33.348 48.9301 33.348 48.9301L28.896 48.5941Z" fill="#76413B"/>
<path d="M52.752 65.4781L49.938 86.4781L35.826 88.7881L35.952 78.6241L52.752 65.4781Z" fill="#D89087"/>
<path d="M36.246 81.4801C36.246 81.4801 47.586 83.5381 50.988 72.0721C54.39 60.6061 53.928 46.6201 41.916 46.2001C29.904 45.7381 27.258 53.4661 28.77 70.4341C29.778 81.2701 36.246 81.4801 36.246 81.4801Z" fill="#FFAC9D"/>
<path d="M52.08 64.1761C52.08 64.1761 52.416 59.5981 56.364 60.9841C60.312 62.3701 54.558 73.4581 51.996 69.3421C49.434 65.2261 52.08 64.1761 52.08 64.1761Z" fill="#FFAC9D"/>
<path d="M57.078 61.1521C57.078 61.1521 54.306 59.8081 52.752 62.2021L51.576 67.7041L49.308 67.3261L49.854 56.9941C49.854 56.9941 45.066 54.1381 45.864 48.4261C45.864 48.4261 25.536 55.3981 24.612 44.3941L27.762 46.1581C27.762 46.1581 22.638 42.3361 26.922 34.1461C26.922 34.1461 29.106 41.0341 35.448 38.5981C35.448 38.5981 29.988 39.5641 30.114 34.9441C30.114 34.9441 34.062 39.0601 45.444 35.8681C56.826 32.6761 55.482 43.5121 55.482 43.5121L52.164 41.3281C52.164 41.3281 57.918 39.0601 61.404 43.7221C64.932 48.4261 57.078 61.1521 57.078 61.1521Z" fill="#965450"/>
<path d="M61.446 43.7641C59.682 41.4121 57.33 40.8241 55.44 40.8241C55.02 38.0941 53.424 34.4821 47.418 35.4481C47.334 39.7741 46.536 44.5201 42.798 47.1661C38.556 50.1901 33.39 50.1901 28.35 49.6021C34.44 52.3321 45.948 48.3841 45.948 48.3841C45.15 54.0961 49.938 56.9521 49.938 56.9521L49.392 67.2841L51.66 67.6621L52.836 62.1601C54.348 59.7661 57.162 61.1101 57.162 61.1101C57.162 61.1101 64.932 48.4261 61.446 43.7641Z" fill="#76413B"/>
<path d="M36.918 71.022C36.792 70.938 36.666 70.854 36.498 70.77C36.372 70.686 36.204 70.602 36.078 70.56C35.784 70.434 35.49 70.308 35.196 70.14C34.902 70.014 34.566 69.888 34.272 69.762L33.348 69.426L33.096 69.342L33.264 69.09C33.684 68.46 33.978 67.788 34.23 67.116C34.482 66.402 34.734 65.688 34.944 64.974C35.154 64.26 35.364 63.504 35.574 62.79L36.162 60.564C36.162 61.32 36.078 62.118 35.952 62.874C35.826 63.63 35.7 64.386 35.49 65.142C35.28 65.898 35.07 66.612 34.734 67.326C34.608 67.704 34.398 68.04 34.23 68.376C34.062 68.712 33.81 69.048 33.558 69.342L33.474 69.006L34.398 69.426C34.692 69.552 34.986 69.72 35.28 69.888C35.574 70.056 35.868 70.224 36.12 70.392C36.246 70.476 36.414 70.56 36.54 70.686C36.708 70.812 36.834 70.896 36.918 71.022Z" fill="#B26262"/>
<path d="M37.884 59.808C37.884 59.808 37.926 59.6401 38.052 59.4301C38.094 59.3041 38.178 59.1361 38.304 59.0101C38.43 58.8421 38.556 58.6321 38.724 58.4641C38.892 58.2961 39.06 58.086 39.312 57.918C39.522 57.708 39.774 57.5821 40.068 57.4141C40.194 57.3301 40.362 57.2881 40.488 57.2041L40.698 57.1201L40.95 57.0361C41.286 56.9101 41.622 56.8681 41.958 56.8261C42.294 56.8261 42.672 56.784 43.008 56.868L43.26 56.9101L43.512 56.9941C43.68 57.0361 43.848 57.0781 43.974 57.1621C44.268 57.2881 44.562 57.4141 44.772 57.5821C45.024 57.7501 45.234 57.9181 45.402 58.0861C45.57 58.2541 45.696 58.4221 45.822 58.5901C45.948 58.7581 46.032 58.8841 46.116 59.0101C46.242 59.2621 46.326 59.388 46.326 59.388C46.326 59.388 46.158 59.304 45.948 59.178C45.822 59.094 45.696 59.0101 45.528 58.9261C45.36 58.8421 45.192 58.7161 44.982 58.6741C44.772 58.5901 44.562 58.4641 44.352 58.4221C44.142 58.3381 43.89 58.2961 43.638 58.2121C43.512 58.1701 43.386 58.17 43.26 58.128C43.134 58.086 43.008 58.0861 42.882 58.0861C42.63 58.0441 42.378 58.0861 42.084 58.0861C41.832 58.1281 41.538 58.1701 41.286 58.2121C41.034 58.2541 40.782 58.3801 40.53 58.4221C40.278 58.5061 40.068 58.5901 39.816 58.7161C39.606 58.8001 39.396 58.9261 39.186 59.0521C38.976 59.1361 38.808 59.2621 38.682 59.3461C38.514 59.4301 38.388 59.514 38.262 59.598C38.052 59.724 37.884 59.808 37.884 59.808Z" fill="#252028"/>
<path d="M28.938 60.354C28.938 60.354 28.98 60.228 29.022 59.976C29.064 59.85 29.106 59.724 29.19 59.556C29.274 59.388 29.358 59.22 29.442 59.052C29.568 58.884 29.694 58.674 29.862 58.506C29.946 58.422 30.03 58.338 30.114 58.212C30.198 58.128 30.324 58.044 30.408 57.96C30.492 57.876 30.618 57.792 30.744 57.708C30.87 57.624 30.996 57.54 31.122 57.498C31.248 57.456 31.416 57.372 31.542 57.33L32.004 57.246C32.298 57.204 32.634 57.204 32.928 57.288C33.096 57.288 33.222 57.33 33.348 57.414C33.474 57.456 33.642 57.498 33.768 57.582C33.894 57.666 34.02 57.708 34.146 57.792C34.272 57.876 34.356 57.96 34.44 58.044C34.65 58.212 34.776 58.38 34.902 58.548C35.028 58.716 35.112 58.884 35.196 59.052C35.28 59.178 35.322 59.346 35.364 59.472C35.448 59.682 35.49 59.85 35.49 59.85C35.49 59.85 35.364 59.766 35.196 59.64C35.112 59.556 34.986 59.472 34.86 59.388C34.734 59.304 34.566 59.22 34.44 59.136C34.272 59.052 34.104 58.926 33.936 58.884C33.852 58.842 33.768 58.8 33.642 58.758C33.558 58.716 33.432 58.716 33.348 58.674C33.264 58.632 33.138 58.632 33.054 58.59C32.97 58.59 32.844 58.548 32.76 58.548C32.55 58.506 32.34 58.548 32.172 58.548L31.878 58.59L31.584 58.674C31.374 58.758 31.164 58.8 30.996 58.926C30.912 58.968 30.786 59.01 30.702 59.052C30.618 59.094 30.534 59.178 30.45 59.22C30.282 59.304 30.114 59.43 29.946 59.556C29.778 59.64 29.652 59.766 29.526 59.85C29.4 59.934 29.274 60.018 29.19 60.102C29.064 60.312 28.938 60.354 28.938 60.354Z" fill="#252028"/>
<path d="M43.512 62.0761C43.554 63.0841 43.89 63.9241 44.268 63.8821C44.646 63.8821 44.898 63.0421 44.856 61.9921C44.814 60.9841 44.478 60.1441 44.1 60.1861C43.764 60.1861 43.47 61.0261 43.512 62.0761Z" fill="#252028"/>
<path d="M32.97 62.8321C33.012 63.8401 33.348 64.6801 33.726 64.6381C34.104 64.6381 34.356 63.7981 34.314 62.7481C34.272 61.7401 33.936 60.9001 33.558 60.9421C33.18 60.9421 32.928 61.7821 32.97 62.8321Z" fill="#252028"/>
<path d="M32.382 72.996C32.382 72.996 32.592 73.038 32.886 73.08C33.222 73.122 33.684 73.206 34.272 73.248C34.566 73.29 34.86 73.29 35.196 73.332C35.532 73.374 35.868 73.374 36.204 73.416C36.54 73.458 36.918 73.416 37.296 73.458C37.674 73.458 38.052 73.458 38.43 73.416C38.808 73.374 39.186 73.374 39.522 73.332C39.69 73.29 39.9 73.29 40.068 73.248C40.236 73.248 40.404 73.164 40.572 73.164C40.74 73.122 40.908 73.08 41.076 73.08C41.244 73.038 41.412 72.996 41.538 72.954C41.832 72.87 42.168 72.786 42.42 72.702C42.672 72.618 42.924 72.534 43.134 72.45C43.344 72.366 43.512 72.282 43.68 72.198C43.974 72.072 44.184 71.988 44.184 71.988C44.184 71.988 44.058 72.114 43.764 72.324C43.638 72.45 43.47 72.576 43.26 72.702C43.05 72.828 42.84 72.954 42.546 73.122C42.294 73.29 42 73.374 41.664 73.542C41.496 73.584 41.328 73.668 41.16 73.752C40.992 73.794 40.824 73.836 40.656 73.92C40.32 74.046 39.942 74.088 39.564 74.172C39.186 74.256 38.808 74.256 38.388 74.298C38.01 74.34 37.59 74.298 37.212 74.298C36.834 74.256 36.456 74.256 36.078 74.214C35.7 74.172 35.364 74.13 35.028 74.046C34.692 74.004 34.398 73.92 34.104 73.836C33.054 73.374 32.382 72.996 32.382 72.996Z" fill="#B26262"/>
<path d="M52.794 68.8381C52.92 68.7541 53.004 68.7121 53.088 68.6281C53.172 68.5441 53.256 68.4601 53.34 68.3761C53.424 68.2921 53.508 68.2081 53.55 68.0821C53.592 67.9981 53.634 67.8721 53.634 67.7881C53.634 67.7461 53.634 67.7041 53.634 67.6621C53.634 67.6201 53.634 67.5781 53.592 67.5361C53.55 67.4941 53.55 67.4521 53.508 67.4101L53.382 67.2841C53.34 67.2421 53.298 67.2001 53.256 67.1581C53.214 67.1161 53.172 67.0741 53.13 67.0741L52.836 66.9061L52.71 66.8221V66.6961C52.668 66.3181 52.668 65.9401 52.71 65.5621C52.71 65.1841 52.752 64.8061 52.836 64.4281C52.92 64.0501 53.004 63.6721 53.172 63.3361C53.34 63.0001 53.55 62.6221 53.886 62.3701C54.054 62.2441 54.264 62.1601 54.474 62.0761C54.6 62.0341 54.684 62.0341 54.81 62.0341H54.894C54.936 62.0341 54.894 62.0341 54.936 62.0341H54.978H55.104C55.272 62.0341 55.524 62.1181 55.692 62.2021C55.902 62.2861 56.07 62.4541 56.154 62.6641C56.28 62.8741 56.28 63.0841 56.28 63.2941C56.28 63.5041 56.238 63.6721 56.196 63.8821C56.112 64.2601 55.944 64.5961 55.734 64.8901C55.86 64.5541 55.902 64.1761 55.944 63.8401C55.944 63.6721 55.944 63.5041 55.944 63.3361C55.902 63.1681 55.86 63.0001 55.776 62.9161C55.692 62.7901 55.566 62.7061 55.44 62.6641C55.314 62.6221 55.188 62.5801 54.978 62.5801H54.852H54.81H54.768C54.684 62.5801 54.642 62.6221 54.558 62.6221C54.432 62.6641 54.306 62.7481 54.18 62.8321C53.97 63.0421 53.76 63.2941 53.634 63.5881C53.508 63.8821 53.424 64.2181 53.34 64.5541C53.256 64.8901 53.214 65.2261 53.172 65.6041C53.13 65.9401 53.13 66.3181 53.088 66.6541L52.962 66.4441L53.298 66.6961C53.34 66.7381 53.382 66.7801 53.466 66.8221C53.508 66.8641 53.55 66.9061 53.592 66.9901L53.718 67.1581C53.76 67.2001 53.76 67.2841 53.802 67.3681C53.844 67.4521 53.844 67.4941 53.844 67.5781C53.844 67.6621 53.844 67.7461 53.844 67.7881C53.802 67.9561 53.76 68.0821 53.676 68.1661C53.592 68.2921 53.508 68.3761 53.382 68.4601C53.256 68.6281 53.046 68.7541 52.794 68.8381Z" fill="#B26262"/>
<path d="M38.136 152.964L38.766 210H22.89C22.89 210 18.69 136.668 24.696 118.062C29.652 102.606 38.136 152.964 38.136 152.964Z" fill="#28222B"/>
<path d="M57.204 132.384L64.47 210H50.274L39.27 158.13C39.27 158.13 26.754 155.526 21.504 151.914C21.504 151.914 21.798 128.226 23.058 126.882C24.36 125.58 57.204 132.384 57.204 132.384Z" fill="#352C38"/>
<path d="M58.128 141.792L57.204 132.384C57.204 132.384 24.36 125.58 23.1 126.882C22.47 127.554 22.05 134.064 21.84 140.28C28.476 142.506 42.588 145.908 58.128 141.792Z" fill="#28222B"/>
<path d="M49.266 84.126C49.266 84.126 63.84 85.974 65.394 89.082C66.948 92.19 58.842 138.894 58.842 138.894C58.842 138.894 41.622 143.388 19.698 138.348C19.698 138.348 15.54 93.87 17.808 90.342C19.32 87.99 26.166 85.344 35.028 84.336C42.756 88.872 45.402 86.31 49.266 84.126Z" fill="#5D8584"/>
<path d="M62.496 100.842C59.598 106.218 55.86 111.51 50.862 115.122C48.048 117.138 45.024 118.734 41.832 120.078C38.262 121.632 34.608 123.186 30.786 124.068C26.67 124.992 22.512 125.202 18.522 124.53C19.11 132.342 19.698 138.348 19.698 138.348C41.664 143.388 58.842 138.894 58.842 138.894C58.842 138.894 64.386 106.932 65.436 94.122C64.722 96.6 63.546 98.952 62.496 100.842Z" fill="#517270"/>
<path d="M53.5919 84.084L45.1499 90.3L43.0499 83.4961L51.1979 79.8L53.5919 84.084Z" fill="white"/>
<path d="M32.1299 84.756L37.0439 89.88L38.6399 83.748L33.6419 81.144L32.1299 84.756Z" fill="white"/>
<path d="M55.23 140.49L52.962 143.22L59.22 151.368L61.068 145.194L55.23 140.49Z" fill="#FFAC9D"/>
<path d="M65.394 89.082C65.394 89.082 83.034 113.946 82.74 120.876C82.446 127.806 60.48 147.882 60.48 147.882C60.48 147.882 56.994 145.824 54.222 141.456L67.536 122.052C67.536 122.052 58.884 107.226 58.254 105.294C57.624 103.362 59.64 87.654 65.394 89.082Z" fill="#5D8584"/>
<path d="M170.814 154.602L170.184 210H187.026C187.026 210 191.478 137.34 185.178 117.558C179.928 101.136 170.814 154.602 170.814 154.602Z" fill="#5C7E9B"/>
<path d="M153.3 135.786L142.926 210H157.92L169.596 160.062C169.596 160.062 182.91 157.332 188.454 153.51C188.454 153.51 188.202 128.352 186.858 126.924C185.514 125.58 153.3 135.786 153.3 135.786Z" fill="#6F96BD"/>
<path d="M157.5 138.39C154.518 138.138 152.796 137.844 152.796 137.844L152.376 141.204C153.93 141.624 155.61 141.876 157.374 142.086C157.374 140.826 157.458 139.608 157.5 138.39Z" fill="#352C38"/>
<path d="M186.522 139.86C187.698 139.65 188.37 139.482 188.37 139.482L188.118 135.114C187.446 135.324 186.816 135.492 186.186 135.66C186.354 137.088 186.438 138.474 186.522 139.86Z" fill="#352C38"/>
<path d="M184.632 136.122C174.342 138.726 164.976 138.81 159.096 138.474C159.054 139.692 159.012 140.952 158.97 142.17C168.294 142.842 179.424 141.162 184.968 140.154C184.842 138.81 184.8 137.466 184.632 136.122Z" fill="#352C38"/>
<path d="M167.286 137.76L167.58 142.8L177.114 142.044L176.526 137.214L167.286 137.76Z" fill="#765E69"/>
<path d="M172.62 81.6481C172.62 81.6481 185.85 80.9761 188.748 83.0341C191.646 85.0921 206.262 106.302 208.152 112.644C210.042 118.986 190.386 132.048 188.118 133.35C188.118 133.35 187.53 127.848 186.858 125.202L194.88 113.988L182.868 97.4401L172.62 81.6481Z" fill="#FDEDEE"/>
<path d="M208.152 112.686C206.934 108.57 200.382 98.2801 195.132 90.9301C192.864 95.2561 190.05 99.2461 186.9 103.026L194.838 114.03L186.816 125.244C187.53 127.89 188.076 133.392 188.076 133.392C190.386 132.09 210.042 119.028 208.152 112.686Z" fill="#EDDFE0"/>
<path d="M151.998 71.3581L154.602 84.7981L168.714 82.8661L168.63 75.1381L151.998 71.3581Z" fill="#76413B"/>
<path d="M155.106 82.2361C155.106 82.2361 139.86 85.5961 138.516 89.0401C137.172 92.4841 153.258 136.878 153.258 136.878C153.258 136.878 167.412 139.65 188.118 133.35C188.118 133.35 191.772 89.2501 189 85.7221C186.228 82.2361 170.982 79.2541 155.106 82.2361Z" fill="#FDEDEE"/>
<path d="M169.974 114.87C162.372 111.972 154.77 108.528 149.016 102.648C146.076 99.666 143.598 96.4321 141.288 92.9461C140.406 91.6021 139.524 90.3 138.558 88.998C138.558 89.04 138.516 89.0401 138.516 89.0821C137.172 92.5261 153.258 136.92 153.258 136.92C153.258 136.92 167.412 139.692 188.118 133.392C188.118 133.392 188.58 127.848 189.042 120.54C182.574 118.986 176.19 117.222 169.974 114.87Z" fill="#EDDFE0"/>
<path d="M159.894 86.8141L162.456 89.4601L163.296 129.15L170.1 134.61L174.93 127.512L166.908 88.7881L169.722 84.2521L164.598 81.1021L160.776 81.9421L159.894 86.8141Z" fill="#352C38"/>
<path d="M150.528 82.6141L160.02 88.3681L162.918 81.4801L152.67 77.8681L150.528 82.6141Z" fill="white"/>
<path d="M173.292 81.2701L168.588 87.1501L163.128 81.2281L171.36 77.5741L173.292 81.2701Z" fill="white"/>
<path d="M142.338 133.518C142.338 133.518 151.41 139.146 152.586 137.34C153.762 135.534 153.804 133.014 153.804 133.014C153.804 133.014 165.648 137.55 154.056 131.208C154.056 131.208 167.496 135.576 154.098 129.36C154.098 129.36 166.446 130.242 153.006 127.512C153.006 127.512 165.606 126.336 151.41 126.336C151.41 126.336 149.352 127.008 150.192 130.662L142.926 127.344L142.338 133.518Z" fill="#965450"/>
<path d="M148.848 130.074L142.926 127.344L142.38 133.518C142.38 133.518 144.648 134.946 147.084 136.122C147.63 134.106 148.344 132.132 148.848 130.074Z" fill="#76413B"/>
<path d="M151.662 82.6561C151.662 82.6561 137.214 84.9241 134.862 87.6541C132.51 90.3421 122.304 112.602 121.968 119.238C121.632 125.874 142.296 134.904 144.816 135.66C144.816 135.66 148.092 131.124 148.134 128.394L136.164 119.28L145.404 100.422L151.662 82.6561Z" fill="#FDEDEE"/>
<path d="M188.286 124.362C174.678 125.034 186.816 125.538 186.816 125.538C174.048 128.772 185.85 127.344 185.85 127.344C173.292 133.854 185.976 129.108 185.976 129.108C175.182 135.744 186.942 130.578 186.942 130.578C186.942 130.578 186.858 132.3 187.74 133.392C188.034 133.77 189.546 134.442 189.672 133.14C191.352 122.766 188.286 124.362 188.286 124.362Z" fill="#965450"/>
<path d="M175.812 46.998C175.812 46.998 176.316 57.33 174.3 58.296C172.284 59.262 171.906 49.35 171.906 49.35L175.812 46.998Z" fill="#252028"/>
<path d="M166.152 79.716C166.152 79.716 154.098 81.942 150.486 69.762C146.832 57.582 147.294 42.756 160.02 42.252C172.788 41.748 175.602 49.896 174.048 67.956C173.04 79.464 166.152 79.716 166.152 79.716Z" fill="#965450"/>
<path d="M149.268 61.404C149.268 61.404 148.89 56.574 144.69 58.044C140.49 59.514 146.664 71.274 149.394 66.948C152.124 62.538 149.268 61.404 149.268 61.404Z" fill="#965450"/>
<path d="M145.95 57.708C145.95 57.708 148.596 57.5401 149.1 60.9421C149.604 64.3441 151.704 64.0501 152.04 62.2021C152.418 60.3541 151.074 55.146 151.074 55.146C151.074 55.146 154.182 52.668 153.972 46.4941C153.972 46.4941 170.688 53.2561 176.274 48.6361C180.6 45.0661 180.936 38.6821 177.03 36.1201C173.124 33.5161 170.058 38.2201 170.058 38.2201C170.058 38.2201 173.166 35.9521 170.562 34.8181C167.958 33.6841 166.53 37.9261 166.53 37.9261C166.53 37.9261 167.37 33.6421 164.85 33.8101C162.33 33.9781 164.766 37.884 164.766 37.884C164.766 37.884 157.08 31.1641 152.208 39.6481C152.208 39.6481 148.176 36.8341 144.564 41.6221C140.952 46.4101 145.95 57.708 145.95 57.708Z" fill="#352C38"/>
<path d="M153.93 46.4941C153.93 46.4941 158.802 48.4681 164.136 49.5601C161.868 49.0141 159.222 48.3421 157.542 46.6201C154.182 43.2181 155.484 38.7661 158.046 35.3641C156.03 35.4901 153.93 36.5821 152.166 39.6481C152.166 39.6481 148.134 36.8341 144.522 41.6221C140.91 46.4101 145.908 57.7081 145.908 57.7081C145.908 57.7081 148.554 57.5401 149.058 60.9421C149.562 64.3441 151.662 64.0501 151.998 62.2021C152.376 60.3541 151.032 55.1461 151.032 55.1461C151.032 55.1461 154.182 52.6681 153.93 46.4941Z" fill="#252028"/>
<path d="M156.828 69.6361L170.478 69.9301C170.478 69.9721 165.312 76.8601 156.828 69.6361Z" fill="white"/>
<path d="M164.43 68.0401C164.976 67.9141 165.48 67.7881 166.026 67.7041C166.572 67.5781 167.118 67.4941 167.622 67.4101L167.37 67.7461C167.244 67.3261 167.118 66.8641 167.034 66.4441C166.908 65.9821 166.824 65.5621 166.698 65.1001C166.614 64.6381 166.488 64.2181 166.404 63.7561L166.11 62.4121C165.942 61.5301 165.774 60.6061 165.606 59.7241C165.48 58.8421 165.354 57.9181 165.27 56.9941C165.606 57.8761 165.858 58.7161 166.11 59.5981C166.362 60.4801 166.572 61.3621 166.824 62.2441L167.118 63.5881C167.202 64.0501 167.328 64.4701 167.412 64.9321C167.496 65.3941 167.58 65.8141 167.664 66.2761C167.748 66.7381 167.832 67.1581 167.916 67.6201L167.958 67.9561H167.664C167.118 67.9981 166.572 67.9981 166.026 68.0401C165.522 68.0401 164.976 68.0401 164.43 68.0401Z" fill="#562626"/>
<path d="M164.304 56.7001C164.304 56.7001 164.136 56.6161 163.926 56.4481C163.8 56.3641 163.674 56.2801 163.506 56.1541C163.338 56.0701 163.17 55.9441 162.96 55.8181C162.75 55.6921 162.54 55.5661 162.288 55.4821C162.078 55.3561 161.784 55.2721 161.532 55.1461C161.28 55.0621 160.986 54.9361 160.734 54.8941C160.44 54.8101 160.188 54.8101 159.894 54.7681C159.6 54.7681 159.348 54.7261 159.054 54.7681C158.928 54.7681 158.76 54.7681 158.634 54.8101C158.508 54.8521 158.34 54.8521 158.214 54.8941C157.962 54.9781 157.71 55.0201 157.458 55.1041C157.206 55.1881 156.996 55.3141 156.786 55.3981C156.576 55.4821 156.408 55.6081 156.198 55.6921C156.03 55.7761 155.862 55.8601 155.778 55.9441C155.526 56.1121 155.4 56.1961 155.4 56.1961C155.4 56.1961 155.484 56.0281 155.61 55.7761C155.694 55.6501 155.778 55.4821 155.904 55.3141C156.03 55.1461 156.156 54.9361 156.366 54.7681C156.576 54.6001 156.786 54.3901 157.038 54.2221C157.164 54.1381 157.29 54.0541 157.458 53.9701C157.584 53.8861 157.752 53.8441 157.92 53.7601C158.088 53.6761 158.256 53.6341 158.424 53.5921L158.676 53.5081L158.928 53.4661C159.264 53.3821 159.642 53.4241 160.02 53.4241C160.398 53.4661 160.734 53.5081 161.07 53.6341L161.322 53.7181L161.574 53.8441C161.742 53.9281 161.91 53.9701 162.036 54.0541C162.33 54.2221 162.582 54.3901 162.834 54.6001C163.086 54.7681 163.254 54.9781 163.422 55.1881C163.59 55.3561 163.716 55.5661 163.842 55.7341C163.968 55.9021 164.052 56.0701 164.136 56.1961C164.262 56.5321 164.304 56.7001 164.304 56.7001Z" fill="#252028"/>
<path d="M173.838 57.2881C173.838 57.2881 173.712 57.2041 173.544 57.0361C173.46 56.9521 173.334 56.8681 173.208 56.7421C173.082 56.6581 172.956 56.5321 172.788 56.4061C172.62 56.2801 172.452 56.1541 172.284 56.0281C172.2 55.9861 172.116 55.9021 171.99 55.8601C171.906 55.8181 171.78 55.7341 171.696 55.6921C171.612 55.6501 171.486 55.6081 171.402 55.5661C171.276 55.5241 171.192 55.4821 171.066 55.4401C170.94 55.3981 170.856 55.3561 170.73 55.3561L170.394 55.3141C170.184 55.3141 169.932 55.2721 169.722 55.3141C169.596 55.3141 169.512 55.3561 169.386 55.3561C169.26 55.3981 169.176 55.3981 169.05 55.4401C168.966 55.4821 168.84 55.5241 168.756 55.5241C168.672 55.5661 168.546 55.6081 168.462 55.6501C168.378 55.6921 168.252 55.7341 168.168 55.8181C168.084 55.8601 168 55.9021 167.916 55.9861C167.748 56.1121 167.622 56.1961 167.454 56.2801C167.328 56.3641 167.202 56.4901 167.118 56.5321C166.908 56.7001 166.782 56.7841 166.782 56.7841C166.782 56.7841 166.824 56.6581 166.908 56.4061C166.95 56.2801 166.992 56.1541 167.118 55.9861C167.202 55.8181 167.328 55.6501 167.454 55.4821C167.622 55.3141 167.748 55.1041 167.958 54.9781C168.042 54.8941 168.168 54.8101 168.294 54.7261C168.42 54.6421 168.546 54.6001 168.672 54.5161C168.798 54.4321 168.966 54.3901 169.092 54.3481C169.218 54.3061 169.386 54.2641 169.554 54.2221C169.848 54.1381 170.184 54.1801 170.52 54.1801L170.982 54.2641C171.15 54.3061 171.276 54.3901 171.444 54.4321C171.612 54.4741 171.738 54.5581 171.864 54.6421C171.99 54.7261 172.116 54.7681 172.242 54.8941C172.368 54.9781 172.452 55.0621 172.578 55.1461C172.662 55.2301 172.746 55.3561 172.872 55.4401C173.04 55.6081 173.166 55.8181 173.334 55.9861C173.46 56.1541 173.544 56.3641 173.628 56.4901C173.712 56.6581 173.754 56.7841 173.796 56.9101C173.796 57.1201 173.838 57.2881 173.838 57.2881Z" fill="#252028"/>
<path d="M158.34 59.1361C158.298 60.2281 157.962 61.1101 157.542 61.0681C157.164 61.0681 156.87 60.1441 156.912 59.0941C156.954 58.0021 157.29 57.1201 157.71 57.1621C158.13 57.1621 158.382 58.0441 158.34 59.1361Z" fill="#252028"/>
<path d="M169.596 59.8921C169.554 60.9841 169.218 61.8661 168.798 61.8241C168.42 61.8241 168.126 60.9001 168.168 59.8501C168.21 58.7581 168.546 57.8761 168.966 57.9181C169.344 57.9181 169.638 58.8001 169.596 59.8921Z" fill="#252028"/>
<path d="M148.554 66.3181C148.302 66.2341 148.05 66.1081 147.84 65.9821C147.714 65.8981 147.63 65.8141 147.546 65.6881C147.462 65.5621 147.378 65.4361 147.336 65.2681C147.336 65.1841 147.294 65.1001 147.336 65.0161C147.336 64.9321 147.336 64.8481 147.378 64.7641C147.42 64.6801 147.42 64.5961 147.462 64.5541L147.588 64.3441C147.63 64.2601 147.672 64.2181 147.756 64.1761C147.798 64.1341 147.84 64.0501 147.924 64.0081L148.26 63.7561L148.092 64.0081C148.092 63.6301 148.05 63.2521 148.008 62.8741C147.966 62.4961 147.924 62.1181 147.84 61.7821C147.756 61.4041 147.672 61.0681 147.504 60.7741C147.42 60.6061 147.336 60.4801 147.252 60.3121C147.168 60.1861 147.042 60.0601 146.958 59.9761C146.832 59.8921 146.706 59.8081 146.58 59.7661C146.496 59.7661 146.454 59.7241 146.37 59.7241H146.328C146.37 59.7241 146.328 59.7241 146.37 59.7241H146.328H146.202C145.992 59.7241 145.866 59.7661 145.74 59.7661C145.614 59.8081 145.488 59.8921 145.404 60.0181C145.32 60.1441 145.278 60.2701 145.236 60.4381C145.194 60.6061 145.194 60.7741 145.236 60.9841C145.278 61.3621 145.362 61.7401 145.446 62.1181C145.236 61.7821 145.068 61.4461 144.942 61.0261C144.9 60.8161 144.858 60.6061 144.858 60.3961C144.858 60.1861 144.9 59.9341 144.984 59.7241C145.068 59.5141 145.278 59.3461 145.53 59.2201C145.74 59.1361 146.034 59.0521 146.202 59.0521H146.328H146.37H146.412H146.454H146.538C146.664 59.0521 146.79 59.0941 146.874 59.0941C147.126 59.1361 147.336 59.2621 147.504 59.3881C147.882 59.6821 148.134 60.0601 148.302 60.4381C148.47 60.8161 148.596 61.2361 148.68 61.6141C148.764 61.9921 148.806 62.4121 148.806 62.8321C148.806 63.2521 148.848 63.6301 148.806 64.0501V64.2181L148.68 64.3021L148.386 64.4701C148.344 64.5121 148.302 64.5541 148.26 64.5961C148.218 64.6381 148.176 64.6801 148.134 64.7221L148.008 64.8481C147.966 64.8901 147.966 64.9321 147.924 64.9741C147.882 65.0161 147.882 65.0581 147.882 65.1001C147.882 65.1421 147.882 65.1841 147.882 65.2261C147.882 65.2681 147.882 65.3101 147.882 65.3941C147.882 65.4361 147.924 65.4781 147.924 65.5621C147.966 65.6881 148.05 65.7721 148.134 65.8561C148.218 65.9401 148.302 66.0241 148.428 66.1081C148.344 66.1501 148.428 66.2341 148.554 66.3181Z" fill="#562626"/>
<path d="M101.85 149.856C101.85 149.856 101.892 171.108 111.804 210H138.6C138.6 210 145.698 134.652 121.632 118.566C105.294 107.688 101.85 149.856 101.85 149.856Z" fill="#5B454C"/>
<path d="M88.956 116.592C88.956 116.592 74.97 130.074 72.492 156.24C70.392 178.458 77.322 210 77.322 210H106.596L108.612 165.648C108.612 165.648 127.26 158.34 136.08 146.118C136.08 146.118 134.232 127.386 120.33 116.256C106.428 105.042 88.956 116.592 88.956 116.592Z" fill="#765E69"/>
<path d="M126.21 122.01C124.572 120.036 122.64 118.062 120.372 116.214C106.47 105.042 88.998 116.592 88.998 116.592C88.998 116.592 82.026 123.228 78.372 133.896C85.89 133.812 103.572 133.938 126.21 122.01Z" fill="#5B454C"/>
<path d="M99.792 22.806C99.792 22.806 110.166 18.774 115.584 24.612C121.002 30.45 115.962 56.07 120.624 61.614C125.286 67.2 125.916 72.618 120.12 79.338C114.282 86.058 98.238 79.716 98.49 61.236C98.742 42.7561 99.792 22.806 99.792 22.806Z" fill="#28222B"/>
<path d="M102.564 61.1101C102.564 61.1101 102.018 71.7781 104.412 71.2321C106.806 70.6861 114.534 67.7461 116.928 74.3401C119.322 80.9761 81.984 89.2501 79.044 78.5821C76.104 67.9141 92.652 82.2781 89.88 57.6241C87.108 32.9701 102.564 61.1101 102.564 61.1101Z" fill="#FFAC9D"/>
<path d="M90.132 60.7741C91.266 61.9081 92.442 62.9581 93.87 63.7141C96.516 65.1001 99.498 65.7301 102.564 66.0241C102.438 63.5461 102.564 61.1101 102.564 61.1101C102.564 61.1101 87.108 32.9701 89.88 57.6241C90.006 58.7581 90.09 59.8081 90.132 60.7741Z" fill="#D89087"/>
<path d="M84.462 43.302C84.462 43.302 84.756 26.418 102.396 28.182C120.036 29.988 112.812 62.454 104.412 64.218C99.792 65.226 83.958 62.706 84.462 43.302Z" fill="#FFAC9D"/>
<path d="M97.0199 55.3981C97.0199 55.3981 102.102 60.5641 107.94 55.7761L97.0199 55.3981Z" fill="white"/>
<path d="M104.538 43.764C104.538 44.1 104.58 44.478 104.58 44.814C104.622 45.15 104.622 45.486 104.706 45.822C104.748 45.99 104.748 46.158 104.79 46.326C104.832 46.494 104.832 46.662 104.874 46.83L105 47.334L105.126 47.838C105.168 48.006 105.252 48.174 105.294 48.3C105.336 48.468 105.42 48.594 105.462 48.762C105.546 48.93 105.588 49.056 105.672 49.224L105.924 49.644C106.008 49.77 106.134 49.896 106.218 50.022C106.302 50.148 106.428 50.274 106.554 50.4C106.68 50.526 106.764 50.652 106.89 50.736L107.268 51.03L107.646 51.324L107.226 51.492C106.218 51.912 105.21 52.332 104.16 52.668C105.084 52.038 106.008 51.534 106.974 50.988L106.932 51.45L106.47 51.156C106.302 51.072 106.176 50.904 106.05 50.778C105.924 50.652 105.756 50.526 105.672 50.358C105.546 50.19 105.462 50.064 105.336 49.896L105.042 49.434C104.958 49.266 104.874 49.098 104.832 48.93C104.748 48.762 104.706 48.594 104.664 48.426C104.622 48.258 104.538 48.09 104.538 47.922L104.412 47.376L104.328 46.83C104.286 46.662 104.286 46.494 104.286 46.284C104.286 46.116 104.286 45.948 104.286 45.738C104.328 45.15 104.37 44.478 104.538 43.764Z" fill="#B26262"/>
<path d="M102.144 40.446C102.144 40.446 101.976 40.32 101.766 40.11C101.64 39.984 101.514 39.858 101.304 39.732C101.22 39.69 101.136 39.606 101.052 39.522C101.01 39.48 100.968 39.438 100.926 39.438C100.884 39.396 100.8 39.396 100.758 39.354C100.548 39.228 100.296 39.102 100.044 38.976C99.9179 38.934 99.792 38.85 99.666 38.808C99.5399 38.766 99.372 38.724 99.246 38.682C99.12 38.64 98.9519 38.64 98.7839 38.598C98.6159 38.556 98.49 38.514 98.322 38.514C98.154 38.514 98.0279 38.472 97.8599 38.472H97.3979C97.2299 38.472 97.062 38.514 96.936 38.514C96.768 38.514 96.5999 38.556 96.4739 38.598C96.3059 38.64 96.18 38.64 96.012 38.682C95.844 38.724 95.7179 38.766 95.5499 38.808C95.3819 38.85 95.2559 38.892 95.1299 38.934C95.0039 38.976 94.8359 39.018 94.7099 39.102C94.4579 39.228 94.206 39.312 93.996 39.438C93.87 39.48 93.7859 39.564 93.6599 39.606C93.5759 39.648 93.45 39.732 93.366 39.774C93.198 39.9 93.0299 39.984 92.9039 40.11C92.6519 40.32 92.4839 40.404 92.4839 40.404C92.4839 40.404 92.526 40.236 92.652 39.9C92.694 39.732 92.82 39.564 92.946 39.354C93.03 39.27 93.072 39.144 93.156 39.06C93.24 38.976 93.3239 38.85 93.4499 38.766C93.6599 38.556 93.9119 38.346 94.1639 38.136C94.2899 38.01 94.4579 37.968 94.5839 37.842C94.7519 37.758 94.878 37.632 95.046 37.59C95.214 37.506 95.3819 37.422 95.5499 37.38C95.7179 37.296 95.928 37.254 96.096 37.212C96.264 37.17 96.4739 37.128 96.6839 37.086C96.8939 37.086 97.062 37.002 97.272 37.044H97.8599C98.0699 37.044 98.2799 37.086 98.4479 37.128C98.6579 37.128 98.826 37.212 99.036 37.254C99.2039 37.338 99.414 37.338 99.582 37.464C99.75 37.548 99.918 37.632 100.086 37.716C100.254 37.8 100.38 37.926 100.506 38.01C100.8 38.22 101.01 38.472 101.22 38.682C101.43 38.892 101.556 39.144 101.682 39.354C101.808 39.564 101.892 39.732 101.934 39.9C102.102 40.278 102.144 40.446 102.144 40.446Z" fill="#252028"/>
<path d="M105.336 40.9921C105.336 40.9921 105.378 40.8241 105.504 40.6141C105.588 40.4881 105.63 40.3201 105.756 40.1941C105.882 40.0261 105.966 39.8581 106.134 39.6481C106.302 39.4801 106.47 39.2701 106.722 39.1021C106.848 39.0181 106.932 38.9341 107.058 38.8501C107.184 38.7661 107.31 38.6821 107.478 38.6401C107.604 38.5561 107.772 38.5141 107.94 38.4721L108.192 38.3881C108.276 38.3881 108.36 38.3461 108.444 38.3461C108.78 38.2621 109.158 38.2621 109.494 38.3041L110.04 38.3881C110.208 38.4301 110.376 38.5141 110.544 38.5561C110.712 38.5981 110.838 38.7241 111.006 38.7661C111.174 38.8501 111.3 38.9341 111.426 39.0181C111.678 39.1861 111.888 39.4381 112.098 39.6061C112.308 39.8161 112.434 40.0261 112.56 40.2361C112.686 40.4461 112.77 40.6561 112.854 40.8241C112.938 40.9921 112.98 41.1601 113.022 41.2861C113.106 41.5381 113.148 41.7061 113.148 41.7061C113.148 41.7061 113.022 41.6221 112.812 41.4121C112.728 41.3281 112.602 41.2021 112.434 41.1181C112.308 40.9921 112.14 40.8661 111.972 40.7401C111.804 40.6141 111.636 40.4461 111.426 40.3201C111.216 40.1941 111.006 40.0681 110.796 39.9421C110.586 39.8161 110.334 39.7321 110.124 39.6481C109.998 39.6061 109.872 39.6061 109.746 39.5641L109.368 39.5221C109.116 39.5221 108.864 39.4801 108.654 39.5221C108.528 39.5221 108.402 39.5641 108.276 39.5641C108.15 39.6061 108.024 39.6061 107.898 39.6481C107.772 39.6901 107.646 39.7321 107.562 39.7741C107.436 39.8161 107.352 39.8581 107.226 39.9001C107.016 39.9841 106.806 40.1101 106.638 40.1941C106.428 40.2781 106.302 40.4041 106.134 40.4881C105.966 40.5721 105.84 40.6981 105.714 40.7401C105.504 40.9501 105.336 40.9921 105.336 40.9921Z" fill="#252028"/>
<path d="M96.6 44.8561C96.6 46.0321 96.306 46.9981 95.928 46.9981C95.55 46.9981 95.214 46.0321 95.214 44.8561C95.214 43.6801 95.508 42.7141 95.886 42.7141C96.264 42.7141 96.6 43.6801 96.6 44.8561Z" fill="#252028"/>
<path d="M108.15 45.1501C108.15 46.3261 107.856 47.2921 107.478 47.2921C107.1 47.2921 106.764 46.3261 106.764 45.1501C106.764 43.9741 107.058 43.0081 107.436 43.0081C107.814 43.0081 108.108 43.9741 108.15 45.1501Z" fill="#252028"/>
<path d="M84.378 71.4C84.378 71.4 70.938 73.626 70.224 76.566C69.468 79.506 89.544 120.876 89.544 120.876L126.672 115.71C126.672 115.71 128.688 97.692 120.624 86.31C120.624 86.31 122.64 71.4 121.38 71.064C120.078 70.686 108.864 69.762 108.864 69.762L98.028 70.518L84.378 71.4Z" fill="#FDEDEE"/>
<path d="M82.908 71.4C82.908 71.4 86.604 76.356 94.836 80.22L97.776 71.568L102.732 80.01C102.732 80.01 108.99 74.298 111.006 69.888L105.672 65.646L97.944 70.434L86.73 66.192L82.908 71.4Z" fill="white"/>
<path d="M71.19 75.474C71.19 75.474 80.43 82.11 84.42 90.216C88.41 98.364 91.308 110.082 91.308 110.082L133.434 108.696L134.358 117.138C134.358 117.138 89.922 131.166 82.488 127.848C75.054 124.572 65.226 77.826 71.19 75.474Z" fill="white"/>
<path d="M133.434 108.696L114.282 110.334L96.138 112.182L93.366 110.082L91.35 110.04C91.35 110.04 91.182 109.326 90.846 108.15L85.89 104.412L92.148 118.734C92.148 118.734 112.938 121.254 134.022 116.088L133.434 108.696Z" fill="#FDEDEE"/>
<path d="M101.262 107.73L96.768 107.478C96.768 107.478 92.106 104.622 89.586 101.892C87.066 99.12 85.428 98.364 85.428 98.364C85.428 98.364 78.498 97.692 79.254 98.868C80.01 100.044 85.092 100.464 85.092 100.464L86.688 102.312C86.688 102.312 82.278 102.732 81.774 103.404C81.27 104.076 78.078 109.662 78.75 109.662C79.422 109.662 81.018 108.57 83.076 105.084C83.076 105.084 80.976 111.678 81.144 113.19C81.312 114.702 83.748 110.334 84.168 107.856C84.588 105.336 84.168 112.854 84.42 113.022C84.672 113.19 85.764 110.754 85.764 109.242C85.764 107.73 87.948 107.394 87.948 107.394C87.948 107.394 93.198 113.484 94.206 113.316C95.214 113.148 102.984 113.736 102.984 113.736L101.262 107.73Z" fill="#FFAC9D"/>
<path d="M99.918 113.526C101.556 113.652 102.942 113.736 102.942 113.736L101.262 107.73L98.238 107.562C98.7 109.578 99.33 111.552 99.918 113.526Z" fill="#D89087"/>
<path d="M121.296 71.022C121.296 71.022 132.888 81.858 139.146 98.406C145.404 114.954 143.556 114.576 133.644 117.516C123.732 120.456 102.228 115.29 102.228 115.29L100.002 106.47L125.916 102.984C125.916 102.984 124.614 95.466 120.036 88.074C120.036 88.116 121.506 77.112 121.296 71.022Z" fill="white"/>
<path d="M121.422 103.572C121.422 103.572 124.488 97.482 125.496 96.558C126.546 95.634 130.788 91.56 131.208 91.896C131.67 92.232 131.208 93.786 129.822 95.088C128.436 96.39 125.244 99.624 125.244 99.624L125.328 98.322C125.328 98.322 132.174 94.752 132.678 94.752C133.182 94.752 133.476 96.096 129.318 98.28L126.252 101.682C126.252 101.682 131.25 98.196 132.006 98.238C132.762 98.28 129.57 101.514 128.478 102.186C127.428 102.9 121.422 103.572 121.422 103.572Z" fill="#FFAC9D"/>
<path d="M74.172 34.608C74.172 34.608 73.542 20.748 83.244 18.69C90.09 17.22 104.454 18.438 104.328 23.604C104.202 28.77 102.522 34.104 94.122 35.91C85.722 37.716 94.248 66.318 89.46 70.602C84.672 74.886 75.936 71.61 70.224 76.566C70.224 76.566 68.166 69.174 71.526 66.276C78.666 60.018 73.122 48.72 74.172 34.608Z" fill="#352C38"/>
</g>
<defs>
<clipPath id="clip0_582_6140">
<rect width="210" height="210" fill="white"/>
</clipPath>
</defs>
</svg>
