<svg width="319" height="67" viewBox="0 0 319 67" fill="none" xmlns="http://www.w3.org/2000/svg">
<circle cx="17" cy="10" r="9.5" fill="#3E6AD5" stroke="#3E6AD5"/>
<line x1="38" y1="10" x2="138" y2="10" stroke="#3E6AD5" stroke-width="4"/>
<circle cx="159" cy="10" r="9" fill="#3E6AD5" stroke="#3E6AD5" stroke-width="2"/>
<line x1="180" y1="10" x2="280" y2="10" stroke="#3E6AD5" stroke-width="4"/>
<circle cx="301" cy="10" r="9" stroke="#3E6AD5" stroke-width="2"/>
<g filter="url(#filter0_d_43_277)">
<path fill-rule="evenodd" clip-rule="evenodd" d="M10.8251 33.5042C12.5134 33.129 14.5616 33 17 33C19.4384 33 21.4866 33.129 23.1749 33.5042C24.878 33.8827 26.2934 34.5288 27.3823 35.6177C28.4712 36.7065 29.1173 38.122 29.4959 39.8251C29.871 41.5134 30 43.5616 30 46C30 48.4384 29.871 50.4866 29.4959 52.1749C29.1173 53.878 28.4712 55.2934 27.3823 56.3823C26.2934 57.4712 24.878 58.1173 23.1749 58.4959C21.4866 58.871 19.4384 59 17 59C14.5616 59 12.5134 58.871 10.8251 58.4959C9.12203 58.1173 7.70651 57.4712 6.61765 56.3823C5.5288 55.2934 4.88266 53.878 4.50417 52.1749C4.12896 50.4866 4 48.4384 4 46C4 43.5616 4.12896 41.5134 4.50417 39.8251C4.88266 38.122 5.5288 36.7065 6.61765 35.6177C7.70651 34.5288 9.12203 33.8827 10.8251 33.5042ZM17 38.2C14.1281 38.2 11.8 40.5281 11.8 43.4C11.8 46.2718 14.1281 48.6 17 48.6C19.8718 48.6 22.2 46.2718 22.2 43.4C22.2 40.5281 19.8718 38.2 17 38.2ZM25.2908 52.8825C25.7494 53.6304 25.5871 54.619 24.848 55.0915C24.1759 55.5213 23.3905 55.7844 22.6107 55.9577C21.2019 56.2708 19.3789 56.4 16.9997 56.4C14.6207 56.4 12.7977 56.2708 11.389 55.9577C10.6237 55.7877 9.85266 55.5315 9.1887 55.1156C8.43621 54.6443 8.2708 53.6422 8.74076 52.8888C9.28194 52.0213 10.0278 51.3397 11.0315 50.8547C12.5543 50.1189 14.5504 49.9 16.9995 49.9C19.4402 49.9 21.4342 50.1012 22.9549 50.8161C23.9845 51.3001 24.7444 51.9916 25.2908 52.8825Z" fill="#3E6AD5"/>
</g>
<g filter="url(#filter1_d_43_277)">
<path d="M314.685 40.9897C314.565 40.3821 314.295 39.8262 313.919 39.3669C313.84 39.2669 313.757 39.1773 313.667 39.0876C313.001 38.4178 312.065 38 311.043 38H291.711C290.689 38 289.757 38.4178 289.087 39.0876C288.998 39.1773 288.915 39.2669 288.835 39.3669C288.459 39.8262 288.19 40.3821 288.072 40.9897C288.024 41.2241 288 41.4664 288 41.7114V55.289C288 55.8098 288.11 56.3105 288.307 56.7627C288.49 57.1943 288.76 57.5849 289.087 57.9124C289.171 57.9952 289.253 58.0714 289.343 58.1472C289.985 58.6789 290.814 59 291.711 59H311.043C311.941 59 312.773 58.6789 313.412 58.1439C313.501 58.0714 313.584 57.9952 313.667 57.9124C313.995 57.5849 314.264 57.1943 314.451 56.7627V56.7594C314.648 56.3072 314.754 55.8098 314.754 55.289V41.7114C314.755 41.4664 314.731 41.2241 314.685 40.9897ZM290.43 40.4303C290.762 40.0991 291.207 39.8986 291.711 39.8986H311.043C311.547 39.8986 311.997 40.0991 312.324 40.4303C312.383 40.4893 312.438 40.5551 312.487 40.6204L302.354 49.4512C302.075 49.6961 301.73 49.8171 301.377 49.8171C301.029 49.8171 300.684 49.6961 300.4 49.4512L290.272 40.6166C290.316 40.5513 290.372 40.4893 290.43 40.4303ZM289.899 55.289V42.5813L297.231 48.9781L289.902 55.3681C289.899 55.3439 289.899 55.3166 289.899 55.289ZM311.043 57.101H291.711C291.383 57.101 291.076 57.0147 290.814 56.8631L298.546 50.1244L299.268 50.7524C299.872 51.2774 300.628 51.5432 301.377 51.5432C302.13 51.5432 302.886 51.2774 303.49 50.7524L304.212 50.1244L311.941 56.8631C311.679 57.0147 311.372 57.101 311.043 57.101ZM312.856 55.289C312.856 55.3166 312.856 55.3439 312.852 55.3681L305.523 48.9818L312.856 42.5847V55.289Z" fill="#3E6AD5" fill-opacity="0.6"/>
</g>
<g filter="url(#filter2_d_43_277)">
<path fill-rule="evenodd" clip-rule="evenodd" d="M163.188 39V37.75C163.188 36.7554 162.817 35.8016 162.158 35.0983C161.498 34.3951 160.604 34 159.672 34H157.328C156.396 34 155.502 34.3951 154.842 35.0983C154.183 35.8016 153.812 36.7554 153.812 37.75V39H152.578C152.11 39.0002 151.646 39.1002 151.214 39.2943C150.782 39.4883 150.391 39.7725 150.064 40.13L147.002 43.475C146.359 44.175 146 45.1167 146 46.0967V55.25C146 56.2446 146.37 57.1984 147.03 57.9016C147.689 58.6049 148.583 59 149.516 59H167.484C168.417 59 169.311 58.6049 169.97 57.9016C170.63 57.1984 171 56.2446 171 55.25V46.0967C171 45.1167 170.641 44.1767 170 43.475L166.936 40.13C166.608 39.7723 166.217 39.488 165.785 39.2939C165.353 39.0999 164.889 38.9999 164.42 39H163.188ZM160.844 37.75C160.844 37.4185 160.72 37.1005 160.501 36.8661C160.281 36.6317 159.983 36.5 159.672 36.5H157.328C157.017 36.5 156.719 36.6317 156.499 36.8661C156.28 37.1005 156.156 37.4185 156.156 37.75V39H160.844V37.75ZM165.259 41.8767C165.15 41.7574 165.02 41.6626 164.876 41.5979C164.731 41.5332 164.577 41.4999 164.42 41.5H152.58C152.423 41.4999 152.269 41.5332 152.124 41.5979C151.98 41.6626 151.85 41.7574 151.741 41.8767L148.678 45.2233C148.464 45.4567 148.344 45.7701 148.344 46.0967V47.3333H154.594V46.9167C154.594 45.7667 155.469 44.8333 156.547 44.8333H160.453C161.531 44.8333 162.406 45.7667 162.406 46.9167V47.3333H168.656V46.0967C168.656 45.7704 168.537 45.457 168.323 45.2233L165.259 41.8767ZM162.406 49.8333H168.656V55.25C168.656 55.94 168.131 56.5 167.484 56.5H149.516C149.205 56.5 148.907 56.3683 148.687 56.1339C148.467 55.8995 148.344 55.5815 148.344 55.25V49.8333H154.594V50.25C154.594 51.4 155.469 52.3333 156.547 52.3333H160.453C161.531 52.3333 162.406 51.4 162.406 50.25V49.8333ZM160.062 49.8333V47.3333H156.938V49.8333H160.062Z" fill="#3E6AD5"/>
</g>
<defs>
<filter id="filter0_d_43_277" x="0" y="33" width="34" height="34" filterUnits="userSpaceOnUse" color-interpolation-filters="sRGB">
<feFlood flood-opacity="0" result="BackgroundImageFix"/>
<feColorMatrix in="SourceAlpha" type="matrix" values="0 0 0 0 0 0 0 0 0 0 0 0 0 0 0 0 0 0 127 0" result="hardAlpha"/>
<feOffset dy="4"/>
<feGaussianBlur stdDeviation="2"/>
<feComposite in2="hardAlpha" operator="out"/>
<feColorMatrix type="matrix" values="0 0 0 0 0 0 0 0 0 0 0 0 0 0 0 0 0 0 0.25 0"/>
<feBlend mode="normal" in2="BackgroundImageFix" result="effect1_dropShadow_43_277"/>
<feBlend mode="normal" in="SourceGraphic" in2="effect1_dropShadow_43_277" result="shape"/>
</filter>
<filter id="filter1_d_43_277" x="284" y="38" width="34.7544" height="29" filterUnits="userSpaceOnUse" color-interpolation-filters="sRGB">
<feFlood flood-opacity="0" result="BackgroundImageFix"/>
<feColorMatrix in="SourceAlpha" type="matrix" values="0 0 0 0 0 0 0 0 0 0 0 0 0 0 0 0 0 0 127 0" result="hardAlpha"/>
<feOffset dy="4"/>
<feGaussianBlur stdDeviation="2"/>
<feComposite in2="hardAlpha" operator="out"/>
<feColorMatrix type="matrix" values="0 0 0 0 0 0 0 0 0 0 0 0 0 0 0 0 0 0 0.25 0"/>
<feBlend mode="normal" in2="BackgroundImageFix" result="effect1_dropShadow_43_277"/>
<feBlend mode="normal" in="SourceGraphic" in2="effect1_dropShadow_43_277" result="shape"/>
</filter>
<filter id="filter2_d_43_277" x="142" y="34" width="33" height="33" filterUnits="userSpaceOnUse" color-interpolation-filters="sRGB">
<feFlood flood-opacity="0" result="BackgroundImageFix"/>
<feColorMatrix in="SourceAlpha" type="matrix" values="0 0 0 0 0 0 0 0 0 0 0 0 0 0 0 0 0 0 127 0" result="hardAlpha"/>
<feOffset dy="4"/>
<feGaussianBlur stdDeviation="2"/>
<feComposite in2="hardAlpha" operator="out"/>
<feColorMatrix type="matrix" values="0 0 0 0 0 0 0 0 0 0 0 0 0 0 0 0 0 0 0.25 0"/>
<feBlend mode="normal" in2="BackgroundImageFix" result="effect1_dropShadow_43_277"/>
<feBlend mode="normal" in="SourceGraphic" in2="effect1_dropShadow_43_277" result="shape"/>
</filter>
</defs>
</svg>
